<?xml version="1.0" encoding="UTF-8"?>
<svg id="Layer_1" data-name="Layer 1" xmlns="http://www.w3.org/2000/svg" viewBox="0 0 138.69 138.69">
  <defs>
    <style>
      .cls-1 {
        fill: #24c2ec;
      }
    </style>
  </defs>
  <path class="cls-1" d="M106.41,0H32.28C14.45,0,0,14.45,0,32.28v74.13C0,124.24,14.45,138.69,32.28,138.69h74.13c17.83,0,32.28-14.45,32.28-32.28V32.28C138.69,14.45,124.24,0,106.41,0ZM112.21,83.72h-18.99v.05c0,20.95-16.98,37.93-37.93,37.93l-.05-18.99c10.49,0,18.99-8.5,18.99-18.99h0s18.99,0,18.99,0v-18.99h-18.99v18.99H26.49v-19.11c0-26.3,21.32-47.62,47.62-47.62h19.11v47.74h18.99v18.99Z"/>
  <path class="cls-1" d="M74.19,35.98c-15.86,0-28.72,12.86-28.72,28.72v.03h28.75v-28.75h-.03Z"/>
</svg>