<?xml version="1.0" encoding="UTF-8"?>
<svg id="Layer_1" data-name="Layer 1" xmlns="http://www.w3.org/2000/svg" viewBox="0 0 423.05 138.69">
  <defs>
    <style>
      .cls-1 {
        fill: #263c84;
      }

      .cls-2 {
        fill: #24c2ec;
      }
    </style>
  </defs>
  <g>
    <path class="cls-1" d="M44.8,118.2h-16.56v-26.55h-5.68v26.55h-7.7c-5.07,0-9.19-4.11-9.19-9.19v-17.36H0v16.93c0,8.19,6.64,14.82,14.82,14.82h35.65v-31.76h-5.67v26.55Z"/>
    <path class="cls-1" d="M244.18,91.65h-23.54v31.76h5.67v-26.55h17.88c5.07,0,9.19,4.11,9.19,9.19v17.36h5.63v-16.93c0-8.19-6.64-14.82-14.82-14.82Z"/>
    <path class="cls-1" d="M79.29,91.65h-23.14s0,0,0,0v18.49c0,7.32,5.94,13.26,13.26,13.26h16.61s0,0,0,0v-5.28s0,0,0,0h-16.61c-3.61,0-6.67-2.42-7.64-5.73,0,0,0,0,0,0h29.82s0,0,0,0v-8.42c0-6.79-5.51-12.3-12.3-12.3ZM86.01,106.66s0,0,0,0h-24.28s0,0,0,0v-9.43s0,0,0,0h17.55c3.72,0,6.74,3.02,6.74,6.73v2.7Z"/>
    <path class="cls-1" d="M102.9,102.68s0,0,0,0v-11.02h-5.62v31.75s0,0,0,0h23.14c6.79,0,12.3-5.51,12.3-12.3v-8.42s0,0,0,0h-29.82ZM120.41,117.83h-17.55s0,0,0,0v-9.43s0,0,0,0h24.28s0,0,0,0v2.7c0,3.72-3.01,6.73-6.73,6.73Z"/>
    <path class="cls-1" d="M168.26,91.65v15.02s0,0,0,0h-19.22c-2.79,0-5.06-2.26-5.06-5.06v-9.97h-5.58v10.45c0,5.65,4.62,10.28,10.28,10.28h19.55s0,0,0,0c-.97,3.31-4.02,5.73-7.64,5.73h-16.61s0,0,0,0v5.28s0,0,0,0h16.61c7.32,0,13.26-5.94,13.26-13.26v-18.5s0,0,0,0h-5.57Z"/>
    <path class="cls-1" d="M201.7,91.65h-16.61s0,0,0,0v5.28s0,0,0,0h16.62c3.61,0,6.67,2.42,7.64,5.73,0,0,0,0,0,0h-29.82s0,0,0,0v8.42c0,6.79,5.51,12.3,12.3,12.3h23.14s0,0,0,0v-18.49c0-7.32-5.94-13.26-13.26-13.26ZM209.38,117.82s0,0,0,0h-17.55c-3.72,0-6.73-3.02-6.73-6.73v-2.7s0,0,0,0h24.28s0,0,0,0v9.43Z"/>
    <path class="cls-1" d="M19.61,56.01h26.31V23.51h-8.74v23.76h-17.58c-5.99,0-10.87-4.88-10.87-10.87v-12.9H0v12.9C0,47.22,8.8,56.01,19.61,56.01Z"/>
    <path class="cls-1" d="M129.51,48.72c3.6,4.44,9.09,7.29,15.24,7.29s11.64-2.85,15.24-7.29c3.6,4.44,9.09,7.29,15.24,7.29h19.61V23.51h-8.74v23.76h-10.87c-5.99,0-10.87-4.88-10.87-10.87v-12.9h-8.74v12.9c0,5.99-4.88,10.87-10.87,10.87s-10.87-4.88-10.87-10.87v-12.9h-8.74v12.9c0,5.99-4.87,10.87-10.87,10.87h-53.89V12.38h-8.74v43.64h62.63c6.15,0,11.64-2.85,15.24-7.29Z"/>
    <path class="cls-1" d="M191.49,73.11h0c2.17-2.17,2.17-5.7,0-7.87s-5.7-2.17-7.87,0-2.17,5.7,0,7.87h0c2.17,2.17,5.7,2.17,7.87,0Z"/>
    <path class="cls-1" d="M180.25,73.11c2.17-2.17,2.17-5.7,0-7.87s-5.7-2.17-7.87,0-2.17,5.7,0,7.87h0c2.17,2.17,5.7,2.17,7.87,0h0Z"/>
    <path class="cls-1" d="M122.15,73.11h0c2.17-2.17,2.17-5.7,0-7.87s-5.7-2.17-7.87,0-2.17,5.7,0,7.87h0c2.17,2.17,5.7,2.17,7.87,0Z"/>
    <path class="cls-1" d="M110.91,73.11h0c2.17-2.17,2.17-5.7,0-7.87s-5.7-2.17-7.87,0-2.17,5.7,0,7.87h0c2.17,2.17,5.7,2.17,7.87,0Z"/>
    <path class="cls-1" d="M148.68,73.11h0c2.17-2.17,2.17-5.7,0-7.87s-5.7-2.17-7.87,0-2.17,5.7,0,7.87h0c2.17,2.17,5.7,2.17,7.87,0Z"/>
    <circle class="cls-1" cx="22.96" cy="17.94" r="5.57"/>
    <path class="cls-1" d="M249.7,55.98s.01,0,.01.02c-1.59,5.45-6.63,9.44-12.58,9.44h-27.38s0,0,0,.01v8.71s0,.01,0,.01h27.37c12.07,0,21.85-9.78,21.85-21.85v-28.79s0-.01-.01-.01h-38.13c-11.19,0-20.26,9.07-20.26,20.26v12.19s0,.01.01.01h49.13ZM209.75,43.8c0-6.13,4.97-11.1,11.1-11.1h28.92s.01,0,.01.01v13.86s0,.01-.01.01h-40s-.01,0-.01-.01v-2.78Z"/>
  </g>
  <g>
    <path class="cls-2" d="M390.77,0h-74.13c-17.83,0-32.28,14.45-32.28,32.28v74.13c0,17.83,14.45,32.28,32.28,32.28h74.13c17.83,0,32.28-14.45,32.28-32.28V32.28c0-17.83-14.45-32.28-32.28-32.28ZM396.57,83.72h-18.99v.05c0,20.95-16.98,37.93-37.93,37.93l-.05-18.99c10.49,0,18.99-8.5,18.99-18.99h0s18.99,0,18.99,0v-18.99h-18.99v18.99h-47.74v-19.11c0-26.3,21.32-47.62,47.62-47.62h19.11v47.74h18.99v18.99Z"/>
    <path class="cls-2" d="M358.55,35.98c-15.86,0-28.72,12.86-28.72,28.72v.03h28.75v-28.75h-.03Z"/>
  </g>
</svg>